# xmcd CD database file
#
# Track frame offsets:
#	150
#	11280
#	32164
#	48173
#	74759
#	91061
#	110395
#	127884
#	154698
#	172260
#	196937
#
# Disc length: 2853 seconds
#
# Revision: 0
# Processed by: cddbd v1.4PL0 Copyright (c) Steve Scherf et al.
# Submitted via: CDex 1.50Beta7
#
DISCID=880b230b
DTITLE=Flip Phillips - A Real Swinger
DYEAR=1900
DGENRE=Jazz
TTITLE0=Hashimoto's Blues
TTITLE1=Vol Vistu Gailey Star
TTITLE2=Tricotism
TTITLE3=I Was a Very Good Year/September Song
TTITLE4=Christian Scientist
TTITLE5=Green Medley: Green Leaves Of Summer/Greensleeves
TTITLE6=Cotton Tail
TTITLE7=I  Got a Right To Sing The Blues
TTITLE8=Symphony
TTITLE9=Poor Butterfly
TTITLE10=I  Want To Be Happy
EXTD=
EXTT0=
EXTT1=
EXTT2=
EXTT3=
EXTT4=
EXTT5=
EXTT6=
EXTT7=
EXTT8=
EXTT9=
EXTT10=
PLAYORDER=
